# xmcd CD database file
#
# Track frame offsets:
#	150
#	55005
#	100943
#	189621
#	250224
#
# Disc length: 4723 seconds
#
# Revision: 0
# Processed by: cddbd v1.5.1PL0 Copyright (c) Steve Scherf et al.
# Submitted via: CDex 1.51
#
DISCID=3c127105
DTITLE=Yemsky - VV May 05 CD
DYEAR=2005
DGENRE=Jazz
TTITLE0=Charles Mingus - Duke Ellington's Sound Of Love
TTITLE1=Mix 2
TTITLE2=Mix 3
TTITLE3=Mix 4
TTITLE4=Mix 5
EXTD=YEAR: 2005
EXTT0=
EXTT1=
EXTT2=
EXTT3=
EXTT4=
PLAYORDER=
